<?xml version="1.0" encoding="utf-8"?>
<!-- Generator: Adobe Illustrator 14.0.0, SVG Export Plug-In . SVG Version: 6.00 Build 43363)  -->
<!DOCTYPE svg PUBLIC "-//W3C//DTD SVG 1.1//EN" "http://www.w3.org/Graphics/SVG/1.1/DTD/svg11.dtd">
<svg version="1.1" xmlns="http://www.w3.org/2000/svg" xmlns:xlink="http://www.w3.org/1999/xlink" x="0px" y="0px" width="29.5px"
	 height="29.5px" viewBox="-2.75 -2.75 29.5 29.5" enable-background="new -2.75 -2.75 29.5 29.5" xml:space="preserve">
<g id="Ebene_3">
	<rect x="-2.75" y="-2.75" fill="#3E3D40" width="29.5" height="29.5"/>
</g>
<g id="Ebene_1_Kopie_Kopie">
	<g>
		<path fill="#FFFFFF" d="M1.28,9.415l4.537-4.537v4.537 M4.992,3.64l-4.95,4.95v9.9c0,0.911,0.739,1.648,1.65,1.648h8.899V3.64
			H4.992z"/>
		<g>
			<path fill="#FFFFFF" d="M16.648,20.084c4.039,0,7.309-1.635,7.309-3.654v-2.74c0,2.021-3.27,3.654-7.309,3.654
				c-0.01,0-0.021-0.001-0.031-0.001v2.74C16.627,20.083,16.638,20.084,16.648,20.084z"/>
			<path fill="#FFFFFF" d="M16.648,12.775c-0.01,0-0.021-0.001-0.031-0.001v2.74c0.01,0,0.021,0.001,0.031,0.001
				c4.039,0,7.309-1.634,7.309-3.653v-2.74C23.957,11.141,20.687,12.775,16.648,12.775z"/>
			<path fill="#FFFFFF" d="M23.957,7.294c0-2.019-3.27-3.654-7.309-3.654c-0.01,0-0.021,0.001-0.031,0.001v7.307
				c0.01,0,0.021,0,0.031,0C20.687,10.949,23.957,9.313,23.957,7.294z"/>
		</g>
		<g>
			<path fill="#FFFFFF" d="M9.315,24.875h8.669L13.65,20.55L9.315,24.875 M9.315-0.875l4.335,4.324l4.334-4.324H9.315"/>
			<g>
				<path fill="#FFFFFF" d="M14.4,20.101h-1.5v-1.5h1.5V20.101L14.4,20.101z M14.4,17.25h-1.5v-1.5h1.5V17.25L14.4,17.25z
					 M14.4,14.25h-1.5v-1.5h1.5V14.25L14.4,14.25z M14.4,11.25h-1.5v-1.5h1.5V11.25L14.4,11.25z M14.4,8.25h-1.5v-1.5h1.5V8.25
					L14.4,8.25z M14.4,5.161h-1.5v-1.5h1.5V5.161L14.4,5.161z"/>
			</g>
		</g>
	</g>
</g>
</svg>
